<svg xmlns="http://www.w3.org/2000/svg" viewBox="0 0 32.04 32.21"><defs><style>.a{fill:#025;}</style></defs><title>Ресурс 1</title><path class="a" d="M7.32,32.12H0V.08H9.16C7.23,3.52,6.09,6.9,9.82,10c-.48.44-.93.86-1.39,1.27C5.53,13.9,5,19.59,10.32,21.51c3,1,5.93,2.12,8.84,3.32a4.39,4.39,0,0,1,2.3,6.5,1.37,1.37,0,0,1-1.38.88c-3.16-.05-6.31,0-9.47,0-.85,0-1.24-.34-1.28-1.18a17.08,17.08,0,0,0-.26-2.49c-.07-.31-.48-.55-.74-.82-.25.27-.67.52-.72.82C7.45,29.7,7.41,30.89,7.32,32.12Z"/><path class="a" d="M21.27,0c.09,1.18.11,2.22.27,3.23.05.28.5.51.76.76.24-.25.63-.47.67-.75.15-1,.19-2.05.27-3.16H32v32H23.28a41,41,0,0,0,1.57-5.3c.34-2-.66-3.63-2.75-5.18A5,5,0,0,0,23.34,21a7,7,0,0,0,2.33-4.32,5.52,5.52,0,0,0-3.54-6.12c-1.83-.77-3.76-1.3-5.64-2a34.09,34.09,0,0,1-4.21-1.66A4.22,4.22,0,0,1,10.66.74a1.5,1.5,0,0,1,1-.7C14.79,0,17.94,0,21.27,0Z"/><path class="a" d="M22.74,18.24c-.26.55-.71,1.64-1.26,2.67a1,1,0,0,1-.88.24c-2.9-1-5.83-2-8.65-3.14-3-1.25-3.57-4.4-1.39-6.74a1.34,1.34,0,0,1,1.08-.4c2.83,1,5.66,1.92,8.45,3C21.74,14.5,22.72,15.76,22.74,18.24Z"/></svg>